<?xml version="1.0" encoding="UTF-8" standalone="no"?>
<svg
   xmlns:dc="http://purl.org/dc/elements/1.1/"
   xmlns:cc="http://creativecommons.org/ns#"
   xmlns:rdf="http://www.w3.org/1999/02/22-rdf-syntax-ns#"
   xmlns:svg="http://www.w3.org/2000/svg"
   xmlns="http://www.w3.org/2000/svg"
   viewBox="0 0 49.333332 49.333332"
   height="49.333332"
   width="49.333332"
   xml:space="preserve"
   id="svg2"
   version="1.1"><metadata
     id="metadata8"><rdf:RDF><cc:Work
         rdf:about=""><dc:format>image/svg+xml</dc:format><dc:type
           rdf:resource="http://purl.org/dc/dcmitype/StillImage" /></cc:Work></rdf:RDF></metadata><defs
     id="defs6"><clipPath
       id="clipPath20"
       clipPathUnits="userSpaceOnUse"><path
         id="path18"
         d="M 182.395,363.145 C 81.8242,363.145 0,283.379 0,185.34 0,87.3047 81.8242,7.53125 182.395,7.53125 c 100.566,0 182.394,79.77345 182.394,177.80875 0,98.039 -81.812,177.805 -182.394,177.805 z M 227.754,179.078 H 198.082 V 75.9727 H 154.109 V 179.078 h -20.902 v 36.442 h 20.902 v 23.57 c 0,16.883 8.231,43.258 44.375,43.258 l 32.586,-0.121 v -35.375 h -23.652 c -3.848,0 -9.324,-1.875 -9.324,-9.926 v -21.414 h 33.504 z" /></clipPath><clipPath
       id="clipPath26"
       clipPathUnits="userSpaceOnUse"><path
         id="path24"
         d="M 0,0 H 370 V 370 H 0 Z" /></clipPath></defs><g
     transform="matrix(1.3333333,0,0,-1.3333333,0,49.333333)"
     id="g10"><g
       transform="scale(0.1)"
       id="g12"><g
         id="g14"><g
           clip-path="url(#clipPath20)"
           id="g16"><g
             clip-path="url(#clipPath26)"
             id="g22"><path
               id="path28"
               style="fill:#ffffff;fill-opacity:1;fill-rule:nonzero;stroke:none"
               d="M 0,0 H 414.789 V 413.145 H 0 Z" /></g></g></g></g></g></svg>