<?xml version="1.0" encoding="UTF-8" standalone="no"?>
<svg
   xmlns:dc="http://purl.org/dc/elements/1.1/"
   xmlns:cc="http://creativecommons.org/ns#"
   xmlns:rdf="http://www.w3.org/1999/02/22-rdf-syntax-ns#"
   xmlns:svg="http://www.w3.org/2000/svg"
   xmlns="http://www.w3.org/2000/svg"
   viewBox="0 0 49.333332 49.333332"
   height="49.333332"
   width="49.333332"
   xml:space="preserve"
   id="svg2"
   version="1.1"><metadata
     id="metadata8"><rdf:RDF><cc:Work
         rdf:about=""><dc:format>image/svg+xml</dc:format><dc:type
           rdf:resource="http://purl.org/dc/dcmitype/StillImage" /></cc:Work></rdf:RDF></metadata><defs
     id="defs6"><clipPath
       id="clipPath20"
       clipPathUnits="userSpaceOnUse"><path
         id="path18"
         d="m 182.387,149.742 c 20.125,0 36.531,15.965 36.531,35.598 0,7.746 -2.602,14.902 -6.906,20.746 -6.637,8.969 -17.422,14.848 -29.602,14.848 -12.187,0 -22.969,-5.871 -29.617,-14.84 -4.32,-5.844 -6.898,-13 -6.906,-20.75 -0.02,-19.629 16.371,-35.602 36.5,-35.602 z" /></clipPath><clipPath
       id="clipPath26"
       clipPathUnits="userSpaceOnUse"><path
         id="path24"
         d="M 0,0 H 370 V 370 H 0 Z" /></clipPath><clipPath
       id="clipPath36"
       clipPathUnits="userSpaceOnUse"><path
         id="path34"
         d="m 262.125,228.883 v 34.277 l -4.578,-0.012 -30.594,-0.093 0.117,-34.285 z" /></clipPath><clipPath
       id="clipPath42"
       clipPathUnits="userSpaceOnUse"><path
         id="path40"
         d="M 0,0 H 370 V 370 H 0 Z" /></clipPath><clipPath
       id="clipPath52"
       clipPathUnits="userSpaceOnUse"><path
         id="path50"
         d="M 182.395,363.145 C 81.8242,363.145 0,283.379 0,185.34 0,87.3047 81.8242,7.53125 182.395,7.53125 c 100.566,0 182.394,79.77345 182.394,177.80875 0,98.039 -81.812,177.805 -182.394,177.805 z m 103.73,-157.059 v -82.793 c 0,-21.566 -17.984,-39.0899 -40.09,-39.0899 H 118.758 c -22.1174,0 -40.0939,17.5239 -40.0939,39.0899 v 82.793 41.285 c 0,21.555 17.9765,39.082 40.0939,39.082 h 127.269 c 22.114,0 40.098,-17.527 40.098,-39.082 z" /></clipPath><clipPath
       id="clipPath58"
       clipPathUnits="userSpaceOnUse"><path
         id="path56"
         d="M 0,0 H 370 V 370 H 0 Z" /></clipPath><clipPath
       id="clipPath68"
       clipPathUnits="userSpaceOnUse"><path
         id="path66"
         d="m 239.137,185.34 c 0,-30.492 -25.449,-55.317 -56.742,-55.317 -31.29,0 -56.735,24.825 -56.735,55.317 0,7.332 1.5,14.344 4.176,20.746 H 98.8672 v -82.793 c 0,-10.699 8.9138,-19.367 19.8828,-19.367 h 127.27 c 10.953,0 19.882,8.668 19.882,19.367 v 82.793 h -30.984 c 2.695,-6.402 4.219,-13.414 4.219,-20.746 z" /></clipPath><clipPath
       id="clipPath74"
       clipPathUnits="userSpaceOnUse"><path
         id="path72"
         d="M 0,0 H 370 V 370 H 0 Z" /></clipPath></defs><g
     transform="matrix(1.3333333,0,0,-1.3333333,0,49.333333)"
     id="g10"><g
       transform="scale(0.1)"
       id="g12"><g
         id="g14"><g
           clip-path="url(#clipPath20)"
           id="g16"><g
             clip-path="url(#clipPath26)"
             id="g22"><path
               id="path28"
               style="fill:#ffffff;fill-opacity:1;fill-rule:nonzero;stroke:none"
               d="m 95.8867,99.7422 h 173.031 v 171.191 H 95.8867 Z" /></g></g></g><g
         id="g30"><g
           clip-path="url(#clipPath36)"
           id="g32"><g
             clip-path="url(#clipPath42)"
             id="g38"><path
               id="path44"
               style="fill:#ffffff;fill-opacity:1;fill-rule:nonzero;stroke:none"
               d="M 176.953,178.77 H 312.125 V 313.161 H 176.953 Z" /></g></g></g><g
         id="g46"><g
           clip-path="url(#clipPath52)"
           id="g48"><g
             clip-path="url(#clipPath58)"
             id="g54"><path
               id="path60"
               style="fill:#ffffff;fill-opacity:1;fill-rule:nonzero;stroke:none"
               d="M 0,0 H 414.789 V 413.145 H 0 Z" /></g></g></g><g
         id="g62"><g
           clip-path="url(#clipPath68)"
           id="g64"><g
             clip-path="url(#clipPath74)"
             id="g70"><path
               id="path76"
               style="fill:#ffffff;fill-opacity:1;fill-rule:nonzero;stroke:none"
               d="m 48.8672,53.9258 h 267.035 v 202.16 H 48.8672 Z" /></g></g></g></g></g></svg>