<?xml version="1.0" encoding="UTF-8" standalone="no"?>
<svg
   xmlns:dc="http://purl.org/dc/elements/1.1/"
   xmlns:cc="http://creativecommons.org/ns#"
   xmlns:rdf="http://www.w3.org/1999/02/22-rdf-syntax-ns#"
   xmlns:svg="http://www.w3.org/2000/svg"
   xmlns="http://www.w3.org/2000/svg"
   viewBox="0 0 49.333332 49.333332"
   height="49.333332"
   width="49.333332"
   xml:space="preserve"
   id="svg2"
   version="1.1"><metadata
     id="metadata8"><rdf:RDF><cc:Work
         rdf:about=""><dc:format>image/svg+xml</dc:format><dc:type
           rdf:resource="http://purl.org/dc/dcmitype/StillImage" /></cc:Work></rdf:RDF></metadata><defs
     id="defs6"><clipPath
       id="clipPath20"
       clipPathUnits="userSpaceOnUse"><path
         id="path18"
         d="M 181.316,363.145 C 81.1836,363.145 0,284.004 0,186.391 0,88.7773 81.1836,9.63672 181.316,9.63672 c 100.133,0 181.317,79.14058 181.317,176.75428 0,97.632 -81.184,176.754 -181.317,176.754 z m 107.7,-128.657 C 276.848,167.723 208.922,111.184 188.5,98.2773 168.059,85.375 149.426,103.449 142.648,117.148 c -7.726,15.555 -30.914,100.129 -36.988,107.133 -6.0741,7.004 -24.2928,-7.004 -24.2928,-7.004 l -8.8399,11.293 c 0,0 37.0117,43.059 65.1607,48.473 29.847,5.723 29.804,-44.695 36.988,-72.668 6.957,-27.066 11.605,-42.531 17.676,-42.531 6.074,0 17.703,15.07 30.371,38.199 12.738,23.156 -0.543,43.617 -25.407,29.078 9.973,58.129 103.848,72.113 91.7,5.367 z" /></clipPath><clipPath
       id="clipPath26"
       clipPathUnits="userSpaceOnUse"><path
         id="path24"
         d="M 0,0 H 370 V 370 H 0 Z" /></clipPath></defs><g
     transform="matrix(1.3333333,0,0,-1.3333333,0,49.333333)"
     id="g10"><g
       transform="scale(0.1)"
       id="g12"><g
         id="g14"><g
           clip-path="url(#clipPath20)"
           id="g16"><g
             clip-path="url(#clipPath26)"
             id="g22"><path
               id="path28"
               style="fill:#ffffff;fill-opacity:1;fill-rule:nonzero;stroke:none"
               d="M 0,0 H 412.633 V 413.145 H 0 Z" /></g></g></g></g></g></svg>