<?xml version="1.0" encoding="utf-8"?>
<!-- Generator: Adobe Illustrator 21.0.2, SVG Export Plug-In . SVG Version: 6.00 Build 0)  -->
<svg version="1.1" id="Layer_1" xmlns="http://www.w3.org/2000/svg" xmlns:xlink="http://www.w3.org/1999/xlink" x="0px" y="0px"
	 viewBox="0 0 792 612" style="enable-background:new 0 0 792 612;" xml:space="preserve">
<style type="text/css">
	.st0{fill:#FFFFFF;}
</style>
<g>
	<path class="st0" d="M435,326.4h-76c-1.7,0-3,1.3-3,2.9v21.6v5.4v3.1c0,7.9,6.7,14.3,15,14.3h52c8.3,0,15-6.4,15-14.3v-3.1v-5.4
		v-21.6C438,327.7,436.6,326.4,435,326.4z M432,339.5v11.4v2.5v5.7v0.2c0,4.7-4,8.6-9,8.6h-52c-5,0-9-3.9-9-8.6v-0.2v-5.7v-2.5
		v-11.4v-7.4h70V339.5z"/>
	<path class="st0" d="M466.6,322.7h-3.3h-10.5v-70.4c0-6.4-4.3-11.9-10.3-13.9c-1.6-0.6-3.4-0.9-5.2-0.9h-0.8H418
		c-1.7-6.4-7.5-11.2-14.5-11.2h-13c-7,0-12.8,4.8-14.5,11.2h-18.5h-0.8c-1.8,0-3.6,0.3-5.2,0.9c-6,2-10.3,7.5-10.3,13.9v70.3h0
		h-10.5h-3.3c-1.7,0-3,1.3-3,2.9v22V359c0,7.9,6.7,14.3,15,14.3h2c0.9,7.4,7.4,13.2,15.4,13.2h80.5c7.9,0,14.5-5.7,15.4-13l2-0.1
		c8.3,0,15-6.4,15-14.3v-11.5v-22C469.6,323.9,468.3,322.7,466.6,322.7z M341.2,367.6h-1.8c-5,0-9-3.9-9-8.6v-8.6h10.8h0V367.6z
		 M341.2,344.6L341.2,344.6h-10.8v-16.3h10.8h0V344.6z M390.5,232.2h13c3.6,0,6.7,2.1,8.2,5.2h-29.3
		C383.8,234.4,386.9,232.2,390.5,232.2z M357.5,244.2h18h6h31h6h18V299c0,4.7-4,8.6-9,8.6h-1.9v-5.7c0-1.6-1.3-2.9-3-2.9
		s-3,1.3-3,2.9v5.7h-44v-5.7c0-1.6-1.3-2.9-3-2.9s-3,1.3-3,2.9v5.7h-3c-5,0-9-3.9-9-8.6V244.2z M445.7,373.2
		C445.7,373.2,445.7,373.2,445.7,373.2C445.7,373.2,445.7,373.1,445.7,373.2C445.7,373.1,445.7,373.1,445.7,373.2L445.7,373.2z
		 M445.8,322.7L445.8,322.7v3.4v2.3v0.1v1v15.2v0.1v4.3v1.3v0.1v1.9v14.8v2.6v0.1v1.7c0,0.3,0,0.6,0,0.8c0,0,0,0.1,0,0.1
		c-0.5,4.1-4.1,7.3-8.5,7.3h-80.5c-4.7,0-8.5-3.6-8.5-8.1V252.3c0-2.6,1.3-4.9,3.3-6.4V299c0,7.9,6.7,14.3,15,14.3h3v5.8
		c0,1.6,1.3,2.9,3,2.9s3-1.3,3-2.9v-5.8h44v5.8c0,1.6,1.3,2.9,3,2.9s3-1.3,3-2.9v-5.8h1.9c8.3,0,15-6.4,15-14.3v-53.2
		c2,1.5,3.3,3.8,3.3,6.4V322.7z M463.6,359.1c0,4.7-4,8.6-9,8.6h-1.8v-0.4v-14.8v-1.9v-0.1h10.8V359.1z M463.6,344.7h-10.8v-15.2v-1
		v-0.1h10.8V344.7z"/>
</g>
</svg>
