<?xml version="1.0" encoding="utf-8"?>
<!-- Generator: Adobe Illustrator 21.0.2, SVG Export Plug-In . SVG Version: 6.00 Build 0)  -->
<svg version="1.1" id="Layer_1" xmlns="http://www.w3.org/2000/svg" xmlns:xlink="http://www.w3.org/1999/xlink" x="0px" y="0px"
	 viewBox="0 0 612 792" style="enable-background:new 0 0 612 792;" xml:space="preserve">
<style type="text/css">
	.st0{fill:#172944;}
</style>
<g>
	<path class="st0" d="M386.7,366.7c-0.2-0.7-0.7-1.2-1.4-1.5l-18.8-8c-0.6-0.3-1.3-0.3-1.9,0l-46.3,17.9v-36.3
		c0-10.8-6-15.8-11.6-15.8c-5.6,0-11.6,4.9-11.6,15.8v1.3l-46.3-17.9c-0.6-0.2-1.3-0.2-1.9,0l-18.8,8c-0.7,0.3-1.2,0.8-1.4,1.5
		c-0.2,0.7-0.2,1.4,0.2,2l17.5,30.2c0.3,0.5,0.7,0.9,1.3,1.1c0,0,12.9,5,25.8,10c7.5,2.9,13.5,5.2,17.8,6.8c2.4,0.9,4.4,1.6,5.8,2.2
		v82.5c0,1.7,1.3,3,3,3h17.3c1.7,0,3-1.3,3-3v-47.5c1.4-0.5,3.4-1.3,5.8-2.2c4.3-1.6,10.3-3.9,17.8-6.8c12.9-5,25.8-10,25.8-10
		c0.5-0.2,1-0.6,1.3-1.1l17.5-30.2C386.9,368.1,387,367.4,386.7,366.7z M295.1,378.8c-8.8-3.3-30.9-11.8-46.8-18l-15.6-27l15.2-6.5
		l47.2,18.2V378.8z M312.4,463.5h-11.3V338.8c0-6.4,2.8-9.8,5.6-9.8c2.8,0,5.6,3.4,5.6,9.8V463.5z M365.1,395.7
		c-15.8,6.2-38,14.7-46.8,18v-33.3l47.2-18.2l15.2,6.5L365.1,395.7z"/>
	<path class="st0" d="M355.3,389.2c1.2,0,2.1-0.9,2.2-2.1l0.3-12.7c0-0.6-0.2-1.2-0.7-1.7c-0.5-0.5-1.1-0.8-1.8-0.8
		c-1.4,0-2.5,1.1-2.5,2.5l0.3,12.7C353.1,388.3,354,389.2,355.3,389.2z"/>
	<path class="st0" d="M355.3,390.1c-1.5,0-2.7,1.2-2.7,2.7c0,1.5,1.2,2.8,2.7,2.8c1.5,0,2.7-1.2,2.7-2.8
		C358,391.3,356.7,390.1,355.3,390.1z"/>
	<path class="st0" d="M261,355.8c-1.5,0-2.8,1.2-2.8,2.7c0,1.5,1.2,2.8,2.8,2.8c1.5,0,2.7-1.2,2.7-2.8
		C263.7,357,262.4,355.8,261,355.8z"/>
	<path class="st0" d="M257.6,345.6c1.2,0,2-0.7,2.2-2l0.3-1.6c0.7-0.3,1.4-0.3,1.7-0.3c1.7,0,1.9,1.5,1.9,1.9c0,1.4-1.1,2.4-2.2,3.5
		c-1.3,1.3-2.8,2.7-2.8,4.9v0.6c0,1.3,1,2.3,2.3,2.3c1.2,0,2.2-1,2.2-2.3V352c0-0.7,0.8-1.5,1.8-2.3c1.6-1.4,3.5-3.1,3.5-6
		c0-3.6-2.7-6.1-6.6-6.1c-0.7,0-2.2,0.1-3.7,0.8c-1.6,0.7-2.3,1.6-2.5,3.1l-0.2,1.6c-0.1,0.7,0.1,1.3,0.5,1.8
		C256.5,345.3,257,345.6,257.6,345.6z"/>
</g>
</svg>
