<?xml version="1.0" encoding="utf-8"?>
<!-- Generator: Adobe Illustrator 21.0.2, SVG Export Plug-In . SVG Version: 6.00 Build 0)  -->
<svg version="1.1" id="Layer_1" xmlns="http://www.w3.org/2000/svg" xmlns:xlink="http://www.w3.org/1999/xlink" x="0px" y="0px"
	 viewBox="0 0 612 792" style="enable-background:new 0 0 612 792;" xml:space="preserve">
<style type="text/css">
	.st0{fill:#172944;}
</style>
<path class="st0" d="M382.5,346.3c-1-4-5-6.4-11-6.4c-1.8,0-3.7,0.2-5.3,0.7l-16.3,5.1l-29.6-26.1c-0.2-0.2-0.4-0.2-0.7-0.2
	c-0.1,0-0.2,0-0.3,0l-10.6,2.8c-0.3,0.1-0.5,0.3-0.6,0.5s-0.1,0.6,0,0.8l12.8,31.1l-18.6,5.8l-13.3-6.9c-0.1-0.1-0.3-0.1-0.5-0.1
	c-0.3,0-0.6,0.1-0.8,0.4l-4.6,6.3c-0.3,0.4-0.2,1,0.1,1.3l0.9,0.8c-0.2,0-0.3,0-0.5,0c-29.2,0.8-52.8,24.4-53.6,53.6
	c0,0.5,0,1.1,0,1.6c0,0.5,0,1.1,0,1.6c0.8,29.2,24.4,52.8,53.6,53.6c0.5,0,1.1,0,1.6,0c0.4,0,0.8,0,1.2,0l0.3,0.3v-0.3
	c0,0,0.1,0,0.1,0c29.2-0.8,52.8-24.4,53.6-53.6c0-0.5,0-1.1,0-1.6c0-0.5,0-1.1,0-1.6c-0.1-5-1-9.8-2.3-14.4l4.2-1.1
	c0.3-0.1,0.6-0.3,0.7-0.6l12.4-37l15.5-3.8c3.7-1,8.7-3.7,10.7-7.3C382.8,349.8,383,348.1,382.5,346.3z M279.5,368.9
	c-6.1,6.4-11,12.8-14.8,19.2c-4.6-1.6-8.9-3.7-12.7-6.3C259.3,374.9,268.9,370.2,279.5,368.9z M249.6,384.2
	c4.1,2.8,8.6,5.1,13.4,6.8c-4.6,8.4-7.1,16.7-7.6,24.9h-18.9C236.9,403.6,241.8,392.5,249.6,384.2z M236.6,419h18.8c0,0.3,0,0.7,0,1
	c0.2,8.1,2.5,16.2,6.7,24.1c-4.5,1.7-8.7,3.8-12.5,6.5C241.8,442.3,236.9,431.2,236.6,419z M251.9,453c3.6-2.4,7.6-4.4,11.9-6
	c3.8,6.4,9,12.7,15.4,18.9C268.6,464.6,259.2,459.9,251.9,453z M283.7,465.9c-7.1-6.5-12.8-13.2-16.9-19.9c5.3-1.6,11-2.5,16.9-2.6
	V465.9z M283.7,440.2c-6.3,0.1-12.6,1.1-18.5,2.9c-4.2-7.7-6.4-15.4-6.6-23.2c0-0.3,0-0.6,0-0.9h25.2V440.2z M283.7,415.8h-25.1
	c0.5-7.8,3-15.8,7.5-23.9c5.7,1.7,11.6,2.6,17.6,2.7V415.8z M283.7,391.4c-5.5-0.1-10.9-0.9-16-2.3c4-6.6,9.3-13.3,16-20V391.4z
	 M326.3,369.8l1.7,12.4c-3.2-3.9-6.9-7.3-11.1-10.2L326.3,369.8z M294,370.6c2.2,2,6.1,4.4,9.6,4.4c0.6,0,1.3-0.1,1.8-0.2l2.7-0.6
	c3.8,2,7.3,4.5,10.4,7.3c-3.5,2.5-7.4,4.5-11.7,6.1c-3.5-5.8-8-11.6-13.3-17.4L294,370.6z M287,415.8v-21.2
	c6.3-0.2,12.6-1.2,18.4-3.1c4.6,8.2,7.2,16.4,7.7,24.3H287z M313.2,419c0,0.3,0,0.6,0,0.9c-0.2,7.9-2.5,15.8-6.9,23.6
	c-6.1-2.1-12.7-3.2-19.3-3.4V419H313.2z M287,391.4v-22.8c0.2,0,0.4,0,0.6,0c6.7,6.7,12.1,13.4,16.2,20
	C298.5,390.3,292.8,391.2,287,391.4z M287.6,466.3c-0.2,0-0.4,0-0.6,0v-22.9c6.2,0.2,12.1,1.2,17.7,3
	C300.5,453.1,294.8,459.7,287.6,466.3z M292.8,465.8c6.2-6,11.2-12.1,14.9-18.2c3.9,1.5,7.6,3.5,10.8,5.8
	C311.6,459.8,302.7,464.3,292.8,465.8z M320.9,451c-3.5-2.6-7.4-4.7-11.5-6.3c4.5-8.1,6.8-16.4,7-24.7c0-0.3,0-0.7,0-1h17.8
	C333.8,431.4,328.8,442.6,320.9,451z M334.2,415.8h-17.9c-0.5-8.4-3.1-16.8-7.9-25.4c4.4-1.7,8.6-3.9,12.3-6.6
	c3.8,4,6.9,8.6,9.2,13.7l0.7,4.8c0,0.3,0.2,0.5,0.4,0.7c0.2,0.1,0.4,0.2,0.6,0.2c0.1,0,0.2,0,0.3,0l0.2-0.1
	C333.4,407.2,334.1,411.4,334.2,415.8z"/>
</svg>
