<?xml version="1.0" encoding="utf-8"?>
<!-- Generator: Adobe Illustrator 21.0.2, SVG Export Plug-In . SVG Version: 6.00 Build 0)  -->
<svg version="1.1" id="Layer_1" xmlns="http://www.w3.org/2000/svg" xmlns:xlink="http://www.w3.org/1999/xlink" x="0px" y="0px"
	 viewBox="0 0 612 792" style="enable-background:new 0 0 612 792;" xml:space="preserve">
<style type="text/css">
	.st0{fill:none;stroke:#42FF5F;stroke-miterlimit:10;}
	.st1{fill:#FFFFFF;}
	.st2{fill:none;stroke:#42FF5F;stroke-width:2;stroke-linejoin:round;stroke-miterlimit:10;}
</style>
<path class="st0" d="M322.9,415.1"/>
<g>
	<path class="st1" d="M230.8,415c4.1-4.2,9.3-8.2,16.3-12.1c-3-0.8-9.1-2.1-18.3-2.8C228.9,405.2,229.6,410.2,230.8,415z"/>
	<path class="st1" d="M364,344.8c0.2,0.4,0.3,0.8,0.2,1.3c0,0.1,0,0.1,0,0.2c-0.5,1.8-2.4,4.3-2.6,4.6l-13.4,21.2
		c4.2-1,12.8-3.3,17.9-5.7c0.1,0,0.1,0,0.2-0.1c0.6-0.1,1.2,0.1,1.5,0.6c1.3,2.2-5.2,12.8-7.3,15.1c-4.9,5.4-23.7,27.2-25.2,33.4
		c-0.6,6.9-2.6,26-2.6,26.2c-0.1,0.6-1.5,14.8-4.1,22c-1.2,3.4-2.8,6.4-4.5,9.1c34.4-8,60-38.8,60-75.7
		C384.1,376.9,376.4,358.6,364,344.8z"/>
	<path class="st1" d="M362.7,343.5c-14.2-14.9-34.2-24.3-56.4-24.3c-42.5,0-77,34.1-77.7,76.4c17-11.9,30.4-13.6,33.2-13.8
		c1.9-2.8,12.8-18,24.3-21.1c5.6-2.6,28.1-2.5,30.9-2.5c8.8-4.7,29.7-13.5,38.3-14.1C358.5,342.9,361.2,342.6,362.7,343.5z"/>
</g>
<path class="st1" d="M363,343.6c-0.1-0.1-0.2-0.1-0.3-0.2c0.4,0.4,0.8,0.9,1.2,1.3C363.8,344.3,363.4,343.9,363,343.6z"/>
<path class="st2" d="M241.3,386.1"/>
</svg>
