<?xml version="1.0" encoding="utf-8"?>
<!-- Generator: Adobe Illustrator 21.0.2, SVG Export Plug-In . SVG Version: 6.00 Build 0)  -->
<svg version="1.1" id="Layer_1" xmlns="http://www.w3.org/2000/svg" xmlns:xlink="http://www.w3.org/1999/xlink" x="0px" y="0px"
	 viewBox="0 0 612 792" style="enable-background:new 0 0 612 792;" xml:space="preserve">
<style type="text/css">
	.st0{fill:#FFFFFF;}
</style>
<g>
	<g>
		<path class="st0" d="M394,459.6c-0.3-1-0.8-1.8-1.4-2.6c-2.8-5.3-14.9-34.1-25.4-59.7c-1.2-2.9-4-4.7-7-4.7c-0.7,0-1.4,0.1-2,0.3
			l-11.5,3.2l-26.5-51.4c-1.2-2.4-3.6-3.9-6.2-4.1c-0.2,0-0.3,0-0.5,0c-2.5,0-4.8,1.2-6.2,3.3l-19.5,28.3l-13.5-10.7
			c-1.3-1.1-3-1.6-4.7-1.6c-0.6,0-1.1,0.1-1.7,0.2c-2.2,0.5-4.1,2-5.1,4l-46.1,94.4c-1.1,2.3-1,5.1,0.4,7.3c1.4,2.2,3.8,3.5,6.4,3.5
			c0,0,0,0,0,0c0.7,0,73.6-0.4,121.4-0.4c30.4,0,38.3,0.2,40.4,0.3c0.5,0.1,1,0.2,1.5,0.2c2,0,4-0.8,5.4-2.2
			C394.1,465.2,394.8,462.3,394,459.6z M386.8,461.9C386.7,461.9,386.7,461.9,386.8,461.9c-1.7-0.3-19.1-0.4-41.9-0.4
			c-48.4,0-121.5,0.4-121.5,0.4l46.1-94.4l19.8,15.6l24.1-34.9l29.3,56.8l17.5-4.9C360.2,400.2,384.5,459.6,386.8,461.9
			C386.8,461.8,386.8,461.8,386.8,461.9C386.8,461.9,386.8,461.9,386.8,461.9z"/>
		<path class="st0" d="M331,403.6c1.4-5,0.3-10.5-2.9-14.5c-0.2-0.2-0.4-0.3-0.7-0.3c0,0,0,0,0,0c-0.2,0-0.5,0.1-0.7,0.3l-4.4,4.4
			c-0.3,0.3-0.4,0.8-0.1,1.2c1.6,2.3,1.9,5.3,0.7,7.8l-0.8,1.8c-0.2,0.3-0.1,0.7,0.1,1l1.3,1.5c1.4,1.7,2.1,4,1.7,6.2
			c-0.3,2.2-1.6,4.1-3.5,5.3l-2.5,1.6c-0.4,0.3-0.6,0.8-0.3,1.3l1.4,2.6c1.7,3,1.2,6.8-1.3,9.3c-1.5,1.4-3.4,2.2-5.5,2.2
			c-1.3,0-2.7-0.4-3.8-1l-2.5-1.5c-0.1-0.1-0.3-0.1-0.5-0.1c-0.3,0-0.6,0.2-0.8,0.4l-1.6,2.5c-1.4,2.2-3.9,3.6-6.5,3.6
			c-1.8,0-3.6-0.7-5-1.8l-1.5-1.3c-0.2-0.1-0.4-0.2-0.6-0.2c-0.1,0-0.3,0-0.4,0.1l-1.8,0.8c-1,0.5-2.1,0.7-3.3,0.7
			c-1.6,0-3.2-0.5-4.5-1.5c-0.2-0.1-0.4-0.2-0.6-0.2c-0.2,0-0.5,0.1-0.7,0.3l-4.4,4.4c-0.2,0.2-0.3,0.4-0.3,0.7
			c0,0.3,0.1,0.5,0.3,0.7c2.8,2.3,6.4,3.6,10.1,3.6c1.5,0,2.9-0.2,4.3-0.6c2.5,1.5,5.3,2.3,8.2,2.3c4.2,0,8.2-1.6,11.1-4.5
			c1.5,0.5,3.1,0.7,4.6,0.7c4.2,0,8.2-1.6,11.1-4.6c4.1-4.1,5.6-10.2,4-15.8C333.7,417.9,334.7,409.8,331,403.6z"/>
		<path class="st0" d="M309.7,411.3c0.2,0.1,0.4,0.2,0.6,0.2c0.2,0,0.5-0.1,0.7-0.3l5.5-5.5c0.2-0.2,0.3-0.5,0.3-0.8
			c0-0.3-0.2-0.5-0.4-0.7c-4.3-2.8-7.6-6.8-9.5-11.5c-0.8-2.1-1.4-4.3-1.6-6.6c-0.1-0.5-0.5-0.8-0.9-0.8l-7.7-0.1c0,0,0,0,0,0
			c-0.3,0-0.5,0.1-0.7,0.3c-0.2,0.2-0.3,0.5-0.2,0.7c0.3,3.4,1.1,6.8,2.4,10.1C300.4,402.3,304.4,407.4,309.7,411.3z"/>
		<path class="st0" d="M301,419.9c0.2,0.1,0.4,0.2,0.6,0.2c0.2,0,0.5-0.1,0.7-0.3l5.4-5.4c0.2-0.2,0.3-0.5,0.3-0.7
			c0-0.3-0.2-0.5-0.4-0.7c-5.4-4.1-9.6-9.5-12.1-15.7c-1.4-3.6-2.3-7.4-2.6-11.2c0-0.5-0.4-0.9-0.9-0.9l-7.7-0.1c0,0,0,0,0,0
			c-0.3,0-0.5,0.1-0.7,0.3c-0.2,0.2-0.3,0.4-0.3,0.7c0.3,5.1,1.4,10,3.3,14.7C289.7,408.3,294.6,414.9,301,419.9z"/>
		<path class="st0" d="M292.6,428.2c0.2,0.1,0.4,0.2,0.6,0.2c0.2,0,0.5-0.1,0.7-0.3l5.4-5.4c0.2-0.2,0.3-0.5,0.3-0.7
			c0-0.3-0.1-0.5-0.4-0.7c-6.5-5.2-11.5-12-14.6-19.7c-2-5-3.2-10.3-3.4-15.7c0-0.5-0.4-0.9-0.9-0.9l-7.7-0.1c0,0,0,0,0,0
			c-0.3,0-0.5,0.1-0.7,0.3c-0.2,0.2-0.3,0.4-0.3,0.7c0.3,6.6,1.7,13.1,4.1,19.2C279.4,414.1,285.2,422.1,292.6,428.2z"/>
	</g>
	<g>
		<path class="st0" d="M345.8,343.8c-0.2,1.9-1.4,3.1-3.1,3.1c-1.7,0-3.3-1.1-3.1-3.8l0.2-3.3c0.2-2.5,1.4-3.5,2.7-4.3
			c2.6-1.7,6.3-2.3,8.7-2.3c7.8,0,13.3,4.5,13.3,12.4c0,6-3.9,10.5-8,14.2l-8.2,7.1h13.5c1.7,0,3.1,1.3,3.1,3.1
			c0,1.7-1.4,3.1-3.1,3.1h-19.3c-2.2,0-3.6-1.7-3.6-3.8c0-1.7,0.8-2.9,2.3-4.3L352,355c3.2-3,5.5-6,5.5-9.5c0-4-2.6-6.1-6.3-6.1
			c-1.8,0-3.7,0.5-5.1,1.3L345.8,343.8z"/>
	</g>
</g>
</svg>
