<?xml version="1.0" encoding="utf-8"?>
<!-- Generator: Adobe Illustrator 21.0.2, SVG Export Plug-In . SVG Version: 6.00 Build 0)  -->
<svg version="1.1" id="Layer_1" xmlns="http://www.w3.org/2000/svg" xmlns:xlink="http://www.w3.org/1999/xlink" x="0px" y="0px"
	 viewBox="0 0 612 792" style="enable-background:new 0 0 612 792;" xml:space="preserve">
<style type="text/css">
	.st0{fill:#8796A4;}
</style>
<g>
	<path class="st0" d="M383.3,327c-0.8-0.6-1.8-0.7-2.7-0.4L330.7,344l-47.6-17.2c-0.4-0.2-0.8-0.3-1.3-0.3c-0.1,0-0.2,0-0.3,0
		c-0.5,0-1,0.1-1.4,0.4L230.9,344c-1.2,0.4-2,1.6-2,2.8l-0.1,115.4c0,1,0.5,1.9,1.3,2.5c0.5,0.4,1.1,0.5,1.7,0.5
		c0.3,0,0.7-0.1,1-0.2l48.1-17.3l49.7,17.3c0,0,0,0,0,0c0.2,0.1,0.4,0.1,0.6,0.1c0,0,0.1,0,0.1,0c0.1,0,0.1,0,0.2,0
		c0.1,0,0.2,0,0.3,0c0,0,0.1,0,0.1,0c0.2,0,0.4-0.1,0.6-0.1l50-18c1.2-0.4,2-1.6,2-2.8V329.5C384.5,328.5,384.1,327.6,383.3,327z
		 M234.8,458l0.1-109l43.7-15.3l0.1,108.4L234.8,458z M334.6,384.6c15.1,1.6,27,14.5,27,30c0,15.6-11.9,28.4-27,30
		c-1,0.1-2.1,0.2-3.2,0.2c-1,0-1.9-0.1-2.8-0.1c-15.3-1.4-27.4-14.4-27.4-30.1s12-28.6,27.4-30.1c0.9-0.1,1.9-0.1,2.8-0.1
		C332.5,384.4,333.6,384.5,334.6,384.6z M328.6,457.1l0,0.9l-43.8-15.3V333.8l43.8,15.8v28.9c-18.6,1.5-33.4,17.1-33.4,36.1
		s14.7,34.6,33.4,36.1V457.1z M378.5,442.1l-44,15.9v-0.6l0-6.8c18.5-1.6,33-17.2,33-36.1c0-18.9-14.5-34.4-33-36l0-29.5l43.9-15.3
		V442.1z"/>
	<path class="st0" d="M312.5,431.7c-0.1,0.6,0.1,1.2,0.5,1.6c0.4,0.4,0.8,0.5,1.3,0.5c0.1,0,0.2,0,0.3,0c5.2-0.8,10.1-2.3,14.4-4.6
		l0,0c2.2-1.1,4.3-2.5,6.2-4c0,0,0,0,0,0c1.2-0.9,2.1-1.8,3-2.6c6.2-6.1,10.4-14.4,12.4-24.7c0.1-0.6-0.1-1.2-0.5-1.7
		c-0.3-0.4-0.8-0.6-1.3-0.6h0h0c-0.1,0-0.2,0-0.3,0c-5.1,0.9-9.9,2.6-14.3,5c-2.2,1.2-4.3,2.6-6.2,4.1
		C319.6,411.5,314.3,420.7,312.5,431.7z M346.3,400c-2,8.3-5.6,15.1-10.7,20c-0.5,0.5-1.1,1-1.7,1.5c-1.8,1.5-3.7,2.8-5.9,4
		c-3.4,1.9-7.2,3.2-11.4,4.1c1.9-8.4,6.2-15.6,12.5-21.1c1.7-1.5,3.7-2.9,5.9-4.1l0,0C338.6,402.5,342.4,401,346.3,400z"/>
	<circle class="st0" cx="331.6" cy="414.8" r="3"/>
	<path class="st0" d="M329.7,388.5v6.5c0,1,0.8,1.8,1.8,1.8c1,0,1.8-0.8,1.8-1.8v-6.5c0-1-0.8-1.8-1.8-1.8
		C330.6,386.7,329.7,387.5,329.7,388.5z"/>
	<path class="st0" d="M331.6,432.3c-1,0-1.8,0.8-1.8,1.8v6.5c0,1,0.8,1.8,1.8,1.8c1,0,1.8-0.8,1.8-1.8v-6.5
		C333.4,433.2,332.6,432.3,331.6,432.3z"/>
	<path class="st0" d="M349.3,414.8c0,1,0.8,1.8,1.8,1.8h6.5c1,0,1.8-0.8,1.8-1.8c0-1-0.8-1.8-1.8-1.8h-6.5
		C350.1,413,349.3,413.8,349.3,414.8z"/>
	<path class="st0" d="M313.6,414.8c0-1-0.8-1.8-1.8-1.8h-6.5c-1,0-1.8,0.8-1.8,1.8c0,1,0.8,1.8,1.8,1.8h6.5
		C312.7,416.6,313.6,415.8,313.6,414.8z"/>
</g>
</svg>
