<?xml version="1.0" encoding="utf-8"?>
<!-- Generator: Adobe Illustrator 21.0.2, SVG Export Plug-In . SVG Version: 6.00 Build 0)  -->
<svg version="1.1" id="Layer_1" xmlns="http://www.w3.org/2000/svg" xmlns:xlink="http://www.w3.org/1999/xlink" x="0px" y="0px"
	 viewBox="0 0 612 792" style="enable-background:new 0 0 612 792;" xml:space="preserve">
<style type="text/css">
	.st0{fill:#8796A4;}
</style>
<path class="st0" d="M353.3,369.6c7.1-0.5,15.6-5.4,25.2-14.6c6.9-6.6,11.8-13,12-13.3c1.1-1.4,1-3.4-0.3-4.7l-4-4l-12.4-12.4
	l-3.8-3.8c-1.3-1.3-3.3-1.4-4.7-0.3c-0.3,0.2-6.7,5-13.4,11.9c-9.3,9.5-14.3,17.9-14.8,25c-0.2,3.3,0.5,6.4,2.2,9l-1.9,1.9
	c-24.1-22.1-56.1-37.1-95.1-44.7c-1.2-0.2-2.4,0.1-3.2,1c-0.8,0.8-1.2,2-1,3.2c6.6,37.1,22.6,69.2,45.8,94l-6.4,6.4
	c-2.6-1.6-5.6-2.3-8.8-2.1c-7.1,0.5-15.6,5.4-25.2,14.6c-6.9,6.6-11.8,13-12,13.3c-1.1,1.4-1,3.4,0.3,4.7l4,4l12.4,12.4l3.8,3.8
	c1.3,1.3,3.3,1.4,4.7,0.3c0.3-0.2,6.7-5,13.4-11.9c9.3-9.5,14.3-17.9,14.8-25c0.2-3.3-0.5-6.4-2.2-9l6.3-6.3
	c25.2,24.7,58,41.4,95.7,47.2c1.1,0.2,2.3-0.2,3.1-1c0.7-0.7,1.1-1.6,1.1-2.5c0-0.2,0-0.4,0-0.6c-6.1-39.2-21.3-71.5-45.3-96.1
	c-0.3-0.3-0.5-0.5-0.8-0.8l1.9-1.9C347.1,369.1,350,369.8,353.3,369.6z M244.3,457.2l-3.5-3.5L239,452c6.4-7.8,20.1-22,30-22.6
	c1.1-0.1,2,0,2.9,0.3L244.3,457.2z M277.6,437.9c-0.7,9.8-15,23.4-22.9,29.7l-1.6-1.6l-3.7-3.7l-0.1-0.1l27.8-27.8
	c0,0.1,0,0.1,0.1,0.2C277.5,435.7,277.7,436.8,277.6,437.9z M288.8,412.7c-21.1-22.6-36-51.6-42.8-85c35.2,7.6,64.1,21.5,86.2,41.6
	l-5,5c-16.4-14.9-37.2-25.9-62.4-33c-1-0.3-2.1,0-2.9,0.7c-0.8,0.7-1.1,1.8-0.9,2.8c5.8,25.6,16.5,46.8,32.1,63.4L288.8,412.7z
	 M328.3,383.7c14.7,15,25.3,33.9,31.5,56.4c-23.1-6.3-42.4-16.6-57.3-30.7L328.3,383.7z M297.4,404.1
	c-13.7-14.7-23.5-33.4-29.2-55.5c21.9,6.8,40.3,16.9,54.8,29.9L297.4,404.1z M380.7,462.4c-34.1-6.3-63.7-21.8-86.7-44.4l4.4-4.4
	c16.8,15.8,38.4,27.1,65,33.5c1,0.2,2.1-0.1,2.8-0.8c0.6-0.6,0.9-1.3,0.9-2.1c0-0.2,0-0.5-0.1-0.7c-6.3-25.7-17.8-47.1-34.4-64.1
	l5-5c0.2,0.2,0.5,0.5,0.7,0.7C360.1,397.6,374.4,426.9,380.7,462.4z M377.5,334.5l3.5,3.5l1.8,1.8c-6.4,7.8-20.1,22-30,22.6
	c-1.1,0.1-2,0-2.9-0.3L377.5,334.5z M344.2,353.8c0.7-9.8,15-23.4,22.9-29.7l1.6,1.6l3.7,3.7c-0.2,0.1-0.3,0.2-0.4,0.4L344.5,357
	C344.2,356,344.1,355,344.2,353.8z"/>
</svg>
