<?xml version="1.0" encoding="utf-8"?>
<!-- Generator: Adobe Illustrator 21.0.2, SVG Export Plug-In . SVG Version: 6.00 Build 0)  -->
<svg version="1.1" id="Layer_1" xmlns="http://www.w3.org/2000/svg" xmlns:xlink="http://www.w3.org/1999/xlink" x="0px" y="0px"
	 viewBox="0 0 612 792" style="enable-background:new 0 0 612 792;" xml:space="preserve">
<style type="text/css">
	.st0{fill:#8796A4;}
	.st1{fill:none;}
</style>
<path class="st0" d="M365.4,321.4h-6.9c-0.3-0.1-0.7-0.2-1.1-0.2s-0.7,0.1-1.1,0.2h-6.9c-1.1,0-2,0.9-2,2s0.9,2,2,2h5v48.7
	L343.8,324c0-0.9-0.5-1.7-1.3-2.1c-0.7-0.4-1.5-0.6-2.3-0.4c-0.4,0.1-0.7,0.2-1,0.4c-0.8,0.5-1.3,1.3-1.3,2.2v49.5l-10.7-50.1
	c-0.3-1.5-1.7-2.4-3.1-2.4c-0.1,0-0.1,0-0.2,0c-1.7,0-3,1.3-3,3v87.5c0,1.7,1.3,3,3,3s3-1.3,3-3V351l11,51.2
	c0.3,1.4,1.5,2.4,2.9,2.4c0.2,0,0.4,0,0.6-0.1c1.3-0.3,2.3-1.4,2.4-2.7c0.1-0.2,0.1-0.4,0.1-0.7v-48.4l10.6,49.7
	c0.3,1.4,1.5,2.4,2.9,2.4c0.2,0,0.4,0,0.6-0.1c0.6-0.1,1.1-0.4,1.5-0.8c0.6-0.5,1.1-1.2,1.1-2v-76.5h5c1.1,0,2-0.9,2-2
	S366.5,321.4,365.4,321.4z"/>
<path class="st0" d="M280.5,453"/>
<path class="st1" d="M280.9,450v-47.2c-0.5,0-1-0.1-1.5-0.1c-0.7,0-1.3,0-1.9,0.1V450H280.9z"/>
<path class="st1" d="M280.9,396.8v-68h-3.4v68c0.6,0,1.3-0.1,1.9-0.1C279.9,396.8,280.4,396.8,280.9,396.8z"/>
<path class="st1" d="M283.9,456h-9.4c-1.7,0-3-1.3-3-3v-48.5c-1.9,0.9-3.7,2.2-5.3,3.9c-12.2,12.6-12.7,41.9-12.6,49.1
	c17,9.6,33.9,9.5,51.8-0.5c0.1-7.2-0.5-36-12.6-48.6c-1.8-1.9-3.7-3.3-5.9-4.2V453C286.9,454.7,285.5,456,283.9,456z"/>
<path class="st0" d="M297.1,404.3c-3-3.1-6.4-5.3-10.2-6.5v-69.5h5.7c1.7,0,3-1.3,3-3s-1.3-3-3-3h-26.3c-1.7,0-3,1.3-3,3s1.3,3,3,3
	h5.2V398c-3.6,1.2-6.8,3.3-9.7,6.3c-15.6,16.2-14.3,53.5-14.3,55.1c0,1,0.6,1.9,1.5,2.5c9.7,5.8,19.6,8.7,29.6,8.7
	c10.3,0,20.7-3.1,31.1-9.2c0.9-0.5,1.4-1.4,1.5-2.5C311.3,457.4,312.6,420.5,297.1,404.3z M280.9,328.8v68v6V450h-3.4v-47.2v-6v-68
	H280.9z M305.3,457c-17.8,9.9-34.8,10.1-51.8,0.5c-0.1-7.2,0.5-36.4,12.6-49.1c1.6-1.7,3.4-3,5.3-3.9V453c0,1.7,1.3,3,3,3h9.4
	c1.7,0,3-1.3,3-3v-48.8c2.1,0.9,4.1,2.3,5.9,4.2C304.8,421,305.4,449.9,305.3,457z"/>
<path class="st0" d="M265.6,418.9L265.6,418.9c-1.3,0-2.4-1.1-2.4-2.4l0,0c0-1.3,1.1-2.4,2.4-2.4l0,0c1.3,0,2.4,1.1,2.4,2.4l0,0
	C268,417.9,266.9,418.9,265.6,418.9z"/>
<path class="st0" d="M292.6,418.9L292.6,418.9c-1.3,0-2.4-1.1-2.4-2.4l0,0c0-1.3,1.1-2.4,2.4-2.4l0,0c1.3,0,2.4,1.1,2.4,2.4l0,0
	C295,417.9,293.9,418.9,292.6,418.9z"/>
<path class="st0" d="M298.6,456L298.6,456c-1.3,0-2.4-1.1-2.4-2.4l0,0c0-1.3,1.1-2.4,2.4-2.4l0,0c1.3,0,2.4,1.1,2.4,2.4l0,0
	C301,455,299.9,456,298.6,456z"/>
<path class="st0" d="M260.6,456L260.6,456c-1.3,0-2.4-1.1-2.4-2.4l0,0c0-1.3,1.1-2.4,2.4-2.4l0,0c1.3,0,2.4,1.1,2.4,2.4l0,0
	C263,455,261.9,456,260.6,456z"/>
<g>
	<path class="st0" d="M361.1,466.9h-33.9c-1.5,0-2.8-1.2-3-2.7c-0.1-1.3-2.9-31.5,8.2-43.7c3.2-3.5,7.1-5.3,11.8-5.3
		s8.6,1.8,11.8,5.3c11.1,12.2,8.3,42.5,8.2,43.7C363.9,465.7,362.6,466.9,361.1,466.9z M329.9,460.9h28.4c0.5-9.5,0.1-28.8-6.9-36.4
		c-2-2.2-4.4-3.3-7.3-3.3s-5.3,1.1-7.3,3.3C329.8,432.1,329.4,451.4,329.9,460.9z"/>
</g>
<g>
	<path class="st0" d="M344.1,455.4c-5.8,0-10.6-4.7-10.6-10.6c0-5.8,4.7-10.6,10.6-10.6c5.8,0,10.6,4.7,10.6,10.6
		C354.7,450.6,349.9,455.4,344.1,455.4z M344.1,440.2c-2.5,0-4.6,2-4.6,4.6c0,2.5,2,4.6,4.6,4.6c2.5,0,4.6-2,4.6-4.6
		C348.7,442.3,346.6,440.2,344.1,440.2z"/>
</g>
</svg>
