<?xml version="1.0" encoding="utf-8"?>
<!-- Generator: Adobe Illustrator 21.0.2, SVG Export Plug-In . SVG Version: 6.00 Build 0)  -->
<svg version="1.1" id="Layer_1" xmlns="http://www.w3.org/2000/svg" xmlns:xlink="http://www.w3.org/1999/xlink" x="0px" y="0px"
	 viewBox="0 0 612 792" style="enable-background:new 0 0 612 792;" xml:space="preserve">
<style type="text/css">
	.st0{fill:#8796A4;}
</style>
<path class="st0" d="M381.7,362.1C381.7,362.1,381.7,362,381.7,362.1c-0.4-0.9-1.2-1.5-2.2-1.5c-6.8-0.3-13.3,0.5-19.4,2.3
	c-0.9,0.3-1.7,0.5-2.6,0.8c-0.2,0-0.3,0.1-0.5,0.2l-2.5,1.1L322.1,379l12.9-32.8l1-2.6c0.1-0.2,0.1-0.4,0.1-0.6
	c0.2-0.8,0.4-1.7,0.6-2.6c1.4-6.1,1.9-12.6,1.7-19.4c0-1-0.6-1.8-1.5-2.2c0,0,0,0-0.1,0c-0.9-0.3-1.9-0.2-2.6,0.5
	c-5,4.6-9.1,9.7-12.1,15.4c-0.4,0.8-0.8,1.6-1.2,2.4c-0.1,0.1-0.2,0.3-0.2,0.5l-1,2.6l-17.9,45.6l-26.9-38.9l3.7-2.5
	c0.9-0.6,1.1-1.9,0.5-2.8s-1.9-1.2-2.9-0.6l-3.7,2.5l-7.3-10.6c-0.7-1-1.9-1.2-2.9-0.6c-0.9,0.6-1.1,1.9-0.5,2.8l7.3,10.6l-3.7,2.5
	c-0.9,0.6-1.1,1.9-0.5,2.8s1.9,1.2,2.9,0.6l3.7-2.5l27.6,39.9l-0.4,0.2L256.4,366l2-4c0.5-1,0.1-2.2-0.9-2.8c-1-0.6-2.3-0.2-2.8,0.8
	l-2,4l-11.2-6.2c-1-0.6-2.3-0.2-2.8,0.8s-0.1,2.2,0.9,2.8l11.2,6.2l-2,4c-0.5,1-0.1,2.2,0.9,2.8c1,0.6,2.3,0.2,2.8-0.8l2-4
	l39.4,21.6l-62.4,27.2c-1.3,0.6-1.8,2-1.3,3.3l4.6,10.5c0.6,1.3,2,1.8,3.3,1.3l53.9-23.5l-21.5,54.8c-0.5,1.3,0.1,2.7,1.4,3.2
	l10.7,4.2c1.3,0.5,2.7-0.1,3.2-1.4l25.2-64.2l16,23.2c-0.2,0.8,0,1.7,0.5,2.5l17.6,25.4c1,1.4,2.9,1.9,4.3,0.9s1.7-2.8,0.7-4.3
	L332.8,429c-0.5-0.8-1.3-1.2-2.2-1.4L313,402.1l0.2-0.4l27.2,14.9c0.2,0.8,0.8,1.6,1.6,2l27,14.8c1.5,0.8,3.4,0.3,4.1-1.2
	c0.8-1.5,0.1-3.4-1.4-4.2l-27-14.8c-0.8-0.4-1.7-0.5-2.5-0.2L317,399.2l44-19.2l2.5-1.1c0.2-0.1,0.4-0.2,0.5-0.3
	c0.8-0.4,1.5-0.9,2.2-1.4c5.3-3.4,10.3-7.6,14.9-12.5C381.8,364,382,363,381.7,362.1z M322.5,346.5l1.8-4.6l0-0.1l0.1-0.2l2.1-4.6
	c0.1-0.2,0.2-0.4,0.4-0.6c1.8-3.3,4-6.4,6.6-9.3c-0.2,3.9-0.6,7.7-1.4,11.3c-0.1,0.2-0.1,0.5-0.1,0.7l-1.5,4.8l-0.1,0.2l0,0.1
	l-1.8,4.6l-12.9,32.9l-8.4,3.7L322.5,346.5z M282.3,466.6l-6-2.4l22.4-57.1l8.4-3.7L282.3,466.6z M364.3,372.6
	c-0.2,0.1-0.4,0.3-0.6,0.4l-4.4,2.3l-0.2,0.1l-0.1,0l-4.5,2l-38.3,16.7l-4.7,2.1l-1.7,0.8l-0.2,0.1l-2.7,1.2l-1,0.5l-4.5,1.9
	l-6.5,2.8l-56.2,24.5l-2.6-6l62.2-27.1l1.4-0.6l2.4-1l2.3-1l0.4-0.2l1.1-0.5l7.3-3.2l6.5-2.8l32.4-14.1l4.5-2l0.1,0l0.2-0.1l4.7-1.7
	c0.2-0.1,0.5-0.1,0.7-0.2c3.6-1,7.4-1.7,11.2-1.9C370.4,368.2,367.4,370.5,364.3,372.6z"/>
</svg>
