<?xml version="1.0" encoding="utf-8"?>
<!-- Generator: Adobe Illustrator 21.0.2, SVG Export Plug-In . SVG Version: 6.00 Build 0)  -->
<svg version="1.1" id="Layer_1" xmlns="http://www.w3.org/2000/svg" xmlns:xlink="http://www.w3.org/1999/xlink" x="0px" y="0px"
	 viewBox="0 0 612 792" style="enable-background:new 0 0 612 792;" xml:space="preserve">
<style type="text/css">
	.st0{fill:#172944;}
</style>
<g>
	<path class="st0" d="M380.8,435.5L336,378.4c2.9-8.5,9.3-32.1-0.6-46.8c-5.4-8-14.6-12-27.3-12c-12.8,0-22.2,4.1-27.8,12.1
		c-10.3,14.7-4.7,38.1-2.2,46.6l-44.8,57.2c-0.5,0.6-0.7,1.5-0.6,2.3s0.6,1.5,1.2,2l16.6,11.9c1.3,1,3.2,0.7,4.2-0.7l25.3-35.1
		l-2,52.7c0,0.8,0.3,1.6,0.9,2.2c0.6,0.6,1.3,0.9,2.1,0.9c0,0,0,0,0,0l26-0.4l26,0.4c0,0,0,0,0,0c0.8,0,1.6-0.3,2.1-0.9
		c0.6-0.6,0.9-1.4,0.9-2.2l-2-52.7l25.3,35.1c1,1.3,2.8,1.6,4.2,0.7l16.6-11.9c0.7-0.5,1.1-1.2,1.2-2S381.3,436.1,380.8,435.5z
		 M285.2,335.1c4.5-6.3,12.2-9.6,22.9-9.6c10.6,0,18.1,3.1,22.4,9.4c8.1,11.9,2.9,32.2,0.2,40.6c-0.2,0.7-0.4,1.4-0.6,1.9h-3.9
		c0.1-0.5,0.2-1.1,0.3-1.6c1.4-8.6,2.7-24.8-4.2-33.6c-3.2-4.1-7.7-6.1-13.5-6.1c-5.7,0-10.5,2.1-14.1,6.2c-7.8,8.8-8.1,25-7.7,33.5
		c0,0.6,0.1,1.2,0.1,1.7h-2.9c-0.2-0.5-0.4-1.2-0.6-1.9C281.2,367.2,276.8,347.1,285.2,335.1z M308.1,377.5h-2.2H292
		c0-0.4-0.1-0.9-0.1-1.4c-0.4-7.6-0.3-22.9,6.4-30.5c2.7-3,6-4.5,10.3-4.5c4.2,0,7.3,1.4,9.5,4.2c6,7.6,4.3,23.3,3,30.9
		c-0.1,0.5-0.2,0.9-0.2,1.3H308.1z M251.6,445l-11.6-8.3l3.8-4.9l11.4,8.1L251.6,445z M280.9,404.2l-24,33.3l-11.3-8.1l36-46
		l1.5-1.9l4.3,0.3l13.5,0.9h3h1.6v0.8v0v74.8h-21.1l1.9-52.2c0-1.3-0.8-2.5-2-2.9c-0.3-0.1-0.6-0.2-1-0.2
		C282.4,403,281.5,403.4,280.9,404.2z M303.9,465.1v0.1l-19.8,0.3l0.2-4.3h21.3v3.9h-1.4H303.9z M310.1,465.3v-0.1h-0.2h-1.4v-3.9
		h21.3l0.2,4.3L310.1,465.3z M333.2,404.2c-0.6-0.8-1.5-1.2-2.4-1.2c-0.3,0-0.7,0.1-1,0.2c-1.3,0.4-2.1,1.6-2,2.9l1.9,52.2h-21.1
		v-74.8v0v-0.8h1.6h3l12.1-0.8l5.7-0.4l1.5,1.9l36.2,46.2l-11.3,8.1L333.2,404.2z M362.5,445l-3.5-4.8l11.4-8.2l3.7,4.7L362.5,445z"
		/>
	<path class="st0" d="M325.7,396.2H315c-0.8,0-1.5,0.7-1.5,1.5s0.7,1.5,1.5,1.5h10.7c0.8,0,1.5-0.7,1.5-1.5S326.5,396.2,325.7,396.2
		z"/>
	<path class="st0" d="M288.3,399.2H299c0.8,0,1.5-0.7,1.5-1.5s-0.7-1.5-1.5-1.5h-10.7c-0.8,0-1.5,0.7-1.5,1.5
		S287.5,399.2,288.3,399.2z"/>
</g>
</svg>
