<?xml version="1.0" encoding="utf-8"?>
<!-- Generator: Adobe Illustrator 21.0.2, SVG Export Plug-In . SVG Version: 6.00 Build 0)  -->
<svg version="1.1" id="Layer_1" xmlns="http://www.w3.org/2000/svg" xmlns:xlink="http://www.w3.org/1999/xlink" x="0px" y="0px"
	 viewBox="0 0 612 792" style="enable-background:new 0 0 612 792;" xml:space="preserve">
<style type="text/css">
	.st0{fill:#8796A4;}
</style>
<path class="st0" d="M383.9,447.7c-0.2-0.3-5-6.7-11.8-13.3c-9.5-9.3-17.9-14.2-25-14.7c-3.4-0.2-6.5,0.5-9.2,2.3l-1.5-1.5
	c22.5-24.2,37.7-56.3,45.3-95.8c0.2-1.2-0.1-2.4-1-3.2c-0.8-0.8-2-1.2-3.2-1c-37.5,6.6-69.8,22.9-94.7,46.5l-39.2-39.2
	c-0.1-0.1-0.3-0.3-0.4-0.4l3.7-3.7c1.4-1.4,1.4-3.7,0-5.1c-1.4-1.4-3.7-1.4-5.1,0l-12.4,12.4c-1.4,1.4-1.4,3.7,0,5.1
	c1.4,1.4,3.7,1.4,5.1,0l3.7-3.7c0.1,0.2,0.2,0.3,0.4,0.4l39.2,39.2c-2.1,2.2-4.2,4.4-6.2,6.7c-0.1,0.1-0.3,0.3-0.4,0.4
	c-1.6,1.8-3.1,3.7-4.6,5.6c-18.1,22.9-30.4,50.8-35.3,82c-0.2,1.1,0.2,2.3,1,3.1c0.7,0.7,1.6,1.1,2.5,1.1c0.2,0,0.4,0,0.5,0
	c32.7-5.1,60.6-16.5,83.2-34.1c1.9-1.5,3.8-3,5.6-4.6c0.1-0.1,0.3-0.2,0.4-0.4c2.3-2,4.5-4,6.7-6.1c0,0,0.1-0.1,0.1-0.1l1.5,1.5
	c-1.6,2.6-2.3,5.6-2.1,8.8c0.5,7.1,5.4,15.6,14.6,25.1c6.6,6.8,13,11.7,13.2,11.9c1.4,1.1,3.4,1,4.7-0.3l20.2-20.2
	C384.8,451.1,384.9,449.1,383.9,447.7z M373.6,328.4c-7.1,33.1-19.9,60.6-38.1,82.1l8-46.6c0.2-1.1-0.2-2.3-1-3.1
	c-0.8-0.8-2-1.2-3.1-1l-46.8,8C314.6,348.5,342.1,334.9,373.6,328.4z M335.6,367.7L328,412l-36.7-36.7L335.6,367.7z M326.3,420.5
	c-2.3,2.3-4.7,4.4-7.2,6.5c-1.8,1.6-3.7,3.1-5.6,4.5c-20.4,15.7-45.2,26.2-74.3,31.3c5.1-27.7,16.3-52.4,32.5-73.1
	c1.5-1.9,3-3.8,4.6-5.6c2.1-2.5,4.3-4.9,6.6-7.2L326.3,420.5C326.3,420.4,326.3,420.4,326.3,420.5z M360.5,465.2
	c-7.8-6.4-21.9-20-22.6-29.9c-0.1-1.1,0-2,0.3-2.9l27.5,27.5L360.5,465.2z M370.9,454.9l-27.7-27.7c1-0.4,2.1-0.5,3.4-0.4
	c9.8,0.7,23.3,15,29.7,22.8L370.9,454.9z"/>
</svg>
