<?xml version="1.0" encoding="utf-8"?>
<!-- Generator: Adobe Illustrator 21.0.2, SVG Export Plug-In . SVG Version: 6.00 Build 0)  -->
<svg version="1.1" id="Layer_1" xmlns="http://www.w3.org/2000/svg" xmlns:xlink="http://www.w3.org/1999/xlink" x="0px" y="0px"
	 viewBox="0 0 792 612" style="enable-background:new 0 0 792 612;" xml:space="preserve">
<style type="text/css">
	.st0{fill:#172944;}
</style>
<g>
	<path class="st0" d="M414.7,235c-10.2-6.4-26.6-6.8-35.2-0.9l-0.2,0.1c-4.6,3.6-17.4,17.9-17.4,31.5c0,11.9,7.5,88,8,93.2
		c0.1,17,13.2,25.8,26.2,25.8c13,0,26.1-8.9,26.2-25.8c0.6-5.4,8.8-84.8,8.8-93.2C431.1,256.2,421.5,239.5,414.7,235z M415.3,358.8
		c0,13.1-9.9,19-19.2,19c-9.2,0-19.2-5.9-19.2-19l0-0.3c-0.1-0.8-8-80.9-8-92.6c0-10.1,10.4-22.6,14.6-26c5.7-3.9,18.9-4.2,27.3,1.1
		c4.9,3.2,13.2,17.9,13.2,24.9c0,2.3-0.7,11-1.8,22.5h-46.5c-1.7,0-3,1.3-3,3s1.3,3,3,3h45.9c-0.4,4.3-0.9,8.9-1.3,13.7h-42.8
		c-1.7,0-3,1.3-3,3s1.3,3,3,3h42.2c-0.4,4.3-0.9,8.7-1.3,13.1c-0.1,0-0.2,0-0.3,0h-38.5c-1.7,0-3,1.3-3,3s1.3,3,3,3h38.2
		c-0.5,5.2-1,10.3-1.5,15h-34.7c-1.7,0-3,1.3-3,3s1.3,3,3,3h34.1c-0.2,1.6-0.3,3-0.5,4.5L415.3,358.8z"/>
	<path class="st0" d="M375.8,275.4h39c0.7,0,1.4-0.3,1.8-0.8s0.7-1.2,0.6-1.9c0-0.3-0.7-6.8-3.5-13.4c-4-9.3-10.4-14.2-18.5-14.2
		c-8.1,0-14.5,4.9-18.5,14.2c-2.9,6.6-3.5,13.2-3.5,13.4c-0.1,0.7,0.2,1.4,0.6,1.9S375.1,275.4,375.8,275.4z M395.3,250.1
		c11.6,0,15.5,14.2,16.6,20.3h-33.2C379.9,264.3,383.7,250.1,395.3,250.1z"/>
</g>
</svg>
