<?xml version="1.0" encoding="utf-8"?>
<!-- Generator: Adobe Illustrator 21.0.2, SVG Export Plug-In . SVG Version: 6.00 Build 0)  -->
<svg version="1.1" id="Layer_1" xmlns="http://www.w3.org/2000/svg" xmlns:xlink="http://www.w3.org/1999/xlink" x="0px" y="0px"
	 viewBox="0 0 792 612" style="enable-background:new 0 0 792 612;" xml:space="preserve">
<style type="text/css">
	.st0{fill:#172944;}
</style>
<path class="st0" d="M473,344c-0.1-0.3-11.3-29.7-22.4-58.7c-6.6-17.1-11.9-30.7-15.7-40.4c-8.3-20.9-8.3-20.9-11.3-21.5
	c-0.7-0.2-1.5-0.1-2.2,0c-5.8,0.5-62.3,0.3-103.4-0.1c-2.4,0-4.7,0-7-0.1c-0.2,0-0.5,0-0.7,0.1c-1.7,0.3-3.3,1.4-4,3l-48.8,117.5
	c-0.6,1.5-0.5,3.3,0.5,4.7c0.9,1.4,2.5,2.2,4.1,2.2h26.8h7.6h28h7.5h30.1h7.7h98.8c1.6,0,3.2-0.8,4.1-2.2
	C473.4,347.2,473.6,345.5,473,344z M300.1,340.8c3.6-9.7,7.7-20.4,11.4-30.2l9.7,30.2H300.1z M328.7,340.8l-13.5-42.1
	c-0.5-1.4-1.8-2.4-3.3-2.5c-1.5-0.1-2.9,0.9-3.4,2.3c0,0-6.8,17.8-13.5,35.7c-0.9,2.3-1.7,4.5-2.5,6.6h-23.1l44.7-107.6
	c0,0,0.1,0,0.1,0l43.7,107.6H328.7z M365.6,340.8l-43.6-107.5c10.7,0.1,27.5,0.2,44.3,0.3c32.4,0.1,46.6,0.2,53.2-0.2
	c5.4,12.7,26.4,67.2,41.7,107.4H365.6z"/>
</svg>
